<?xml version="1.0" encoding="UTF-8"?>
<svg id="Layer_1" data-name="Layer 1" xmlns="http://www.w3.org/2000/svg" viewBox="0 0 2989.89 2995.33">
  <defs>
    <style>
      .cls-1 {
        fill: #c1272d;
      }

      .cls-1, .cls-2 {
        stroke-width: 0px;
      }
    </style>
  </defs>
  <path class="cls-1" d="m1494.95,2945.33c-195.08,0-384.29-38.26-562.39-113.73-85.61-36.27-168.18-81.17-245.42-133.45-76.52-51.79-148.49-111.27-213.89-176.79-65.4-65.52-124.78-137.62-176.48-214.28-52.19-77.39-97.01-160.12-133.22-245.89-75.34-178.45-113.54-368.04-113.54-563.51s38.2-385.06,113.54-563.51c36.21-85.77,81.04-168.5,133.22-245.89,51.7-76.67,111.08-148.76,176.48-214.28,65.4-65.52,137.36-125,213.89-176.79,77.24-52.28,159.81-97.18,245.42-133.45,178.1-75.47,367.32-113.73,562.39-113.73s384.29,38.27,562.39,113.73c85.61,36.27,168.18,81.17,245.42,133.45,76.52,51.79,148.49,111.27,213.89,176.79,65.4,65.52,124.78,137.62,176.48,214.28,52.19,77.39,97.01,160.12,133.23,245.89,75.34,178.45,113.54,368.04,113.54,563.51s-38.2,385.06-113.54,563.51c-36.21,85.77-81.04,168.5-133.23,245.89-51.7,76.67-111.08,148.76-176.48,214.28-65.4,65.52-137.36,125-213.89,176.79-77.24,52.28-159.81,97.18-245.42,133.45-178.1,75.47-367.32,113.73-562.39,113.73Z"/>
  <path class="cls-2" d="m1494.95,100c94.7,0,189.31,9.55,281.2,28.39,89.51,18.35,177.55,45.73,261.68,81.38,82.63,35.01,162.34,78.36,236.9,128.82,73.89,50.01,143.37,107.44,206.52,170.71,63.16,63.27,120.49,132.89,170.41,206.92,50.39,74.72,93.66,154.58,128.62,237.38,35.6,84.31,62.93,172.54,81.26,262.25,18.81,92.09,28.35,186.91,28.35,281.82s-9.54,189.72-28.35,281.82c-18.32,89.7-45.66,177.93-81.26,262.24-34.96,82.8-78.23,162.67-128.62,237.38-49.92,74.03-107.26,143.65-170.41,206.92-63.15,63.27-132.64,120.7-206.52,170.71-74.57,50.47-154.27,93.81-236.9,128.82-84.13,35.65-172.18,63.03-261.68,81.38-91.89,18.84-186.5,28.39-281.2,28.39s-189.31-9.55-281.2-28.39c-89.51-18.35-177.55-45.73-261.68-81.38-82.63-35.01-162.34-78.36-236.9-128.82-73.89-50.01-143.37-107.44-206.52-170.71-63.15-63.27-120.49-132.89-170.41-206.92-50.39-74.72-93.66-154.58-128.62-237.38-35.6-84.31-62.93-172.54-81.26-262.24-18.81-92.09-28.35-186.91-28.35-281.82s9.54-189.72,28.35-281.82c18.32-89.7,45.66-177.93,81.26-262.25,34.96-82.8,78.23-162.67,128.62-237.38,49.92-74.03,107.26-143.65,170.41-206.92,63.15-63.27,132.64-120.7,206.52-170.71,74.57-50.47,154.27-93.81,236.9-128.82,84.13-35.65,172.18-63.03,261.68-81.38,91.89-18.84,186.5-28.39,281.2-28.39m0-100C669.31,0,0,670.53,0,1497.67s669.31,1497.67,1494.95,1497.67,1494.95-670.53,1494.95-1497.67S2320.58,0,1494.95,0h0Z"/>
</svg>